# xmcd CD database file
#
# Track frame offsets:
#	150
#	23962
#	49207
#	72617
#	86470
#	102350
#	127312
#	152682
#	167987
#	188142
#
# Disc length: 2743 seconds
#
# Revision: 0
# Processed by: cddbd v1.5.1PL0 Copyright (c) Steve Scherf et al.
# Submitted via: CDex 1.51
#
DISCID=8e0ab50a
DTITLE=真梨邑ケイ - Tiempo de Amor
DYEAR=1985
DGENRE=Jazz
TTITLE0=私生活
TTITLE1=Meia Noite（メア・ノイチ）
TTITLE2=愛の瞬間
TTITLE3=Swingな　思いつき
TTITLE4=THE SHAPE OF THE HEART
TTITLE5=ファイナル・フライト
TTITLE6=エトランゼ・ブレイク
TTITLE7=ずっと10月で
TTITLE8=私だけのル・マン
TTITLE9=THE BRIDGE
EXTD=YEAR: 1985
EXTT0=
EXTT1=
EXTT2=
EXTT3=
EXTT4=
EXTT5=
EXTT6=
EXTT7=
EXTT8=
EXTT9=
PLAYORDER=
